<?xml version="1.0" encoding="UTF-8"?>
<!--Generator: Apple Native CoreSVG 341-->
<!DOCTYPE svg
PUBLIC "-//W3C//DTD SVG 1.1//EN"
       "http://www.w3.org/Graphics/SVG/1.1/DTD/svg11.dtd">
<svg version="1.1" xmlns="http://www.w3.org/2000/svg" xmlns:xlink="http://www.w3.org/1999/xlink" viewBox="0 0 55.0217 58.0547">
 <g>
  <rect height="58.0547" opacity="0" width="55.0217" x="0" y="0"/>
  <path d="M7.01478 16.4297L15.0304 5.36719C16.132 3.84375 15.382 2.625 13.5538 2.60156L1.95228 2.41406C0.42884 2.39062-0.344597 3.44531 0.14759 4.89844L3.89759 15.8438C4.50697 17.6016 5.86634 17.9531 7.01478 16.4297ZM25.132 55.8516C25.132 57.0703 26.1398 58.0547 27.3351 58.0547C28.5538 58.0547 29.5382 57.0703 29.5382 55.8516L29.5382 38.4844C29.5382 25.125 22.1788 13.7578 9.26478 6.84375C7.92884 6.09375 6.73353 6.82031 6.24134 7.85156C5.79603 8.8125 5.98353 10.0312 7.13197 10.6875C18.7804 16.8984 25.132 26.8359 25.132 38.4844ZM47.6554 16.4297C48.7804 17.9531 50.1632 17.6016 50.7492 15.8438L54.4992 4.89844C55.0148 3.44531 54.2179 2.39062 52.7179 2.41406L41.1163 2.60156C39.2648 2.625 38.5148 3.84375 39.6398 5.36719ZM29.5382 55.8516L29.5382 38.4844C29.5382 26.8359 35.8898 16.8984 47.5382 10.6875C48.6867 10.0312 48.8742 8.8125 48.4288 7.85156C47.9367 6.82031 46.7413 6.09375 45.4054 6.84375C32.4913 13.7578 25.132 25.125 25.132 38.4844L25.132 55.8516C25.132 57.0703 26.1398 58.0547 27.3351 58.0547C28.5538 58.0547 29.5382 57.0703 29.5382 55.8516Z" fill="black" fill-opacity="0.85"/>
 </g>
</svg>
